<svg width="25" height="26" viewBox="0 0 25 26" fill="none" xmlns="http://www.w3.org/2000/svg">
<g clip-path="url(#clip0_2728_2594)">
<g clip-path="url(#clip1_2728_2594)">
<path d="M23.954 7.53455L15.536 15.9525C14.5974 16.8888 13.3257 17.4146 12 17.4146C10.6743 17.4146 9.40263 16.8888 8.464 15.9525L0.046 7.53455C0.032 7.69255 0 7.83555 0 7.99255V19.9925C0.00158786 21.3181 0.528882 22.589 1.46622 23.5263C2.40356 24.4637 3.67441 24.991 5 24.9925H19C20.3256 24.991 21.5964 24.4637 22.5338 23.5263C23.4711 22.589 23.9984 21.3181 24 19.9925V7.99255C24 7.83555 23.968 7.69255 23.954 7.53455Z" fill="white"/>
<path d="M14.1221 14.5385L23.2561 5.40349C22.8137 4.66981 22.1896 4.06253 21.4441 3.64022C20.6986 3.21792 19.8569 2.99483 19.0001 2.99249H5.00014C4.14336 2.99483 3.30164 3.21792 2.55617 3.64022C1.81069 4.06253 1.18662 4.66981 0.744141 5.40349L9.87814 14.5385C10.4417 15.0998 11.2047 15.415 12.0001 15.415C12.7956 15.415 13.5586 15.0998 14.1221 14.5385Z" fill="white"/>
</g>
</g>
<defs>
<clipPath id="clip0_2728_2594">
<rect width="25" height="25" fill="white" transform="translate(0 0.992676)"/>
</clipPath>
<clipPath id="clip1_2728_2594">
<rect width="24" height="24" fill="white" transform="translate(0 1.99268)"/>
</clipPath>
</defs>
</svg>
